# xmcd
#
# Track frame offsets:
#	150
#	46560
#	60901
#	83035
#	101772
#	117381
#	146131
#	160992
#
# Disc length: 2392 seconds
#
# Revision: 0
# Processed by: cddbd v1.5.2PL0 Copyright (c) Steve Scherf et al.
# Submitted via: dBpowerAMP V4.0
#
DISCID=61095608
DTITLE=davisson - davisson
DYEAR=2007
DGENRE=Country
TTITLE0=davisson
TTITLE1=Track02davisson
TTITLE2=davisson
TTITLE3=davisson
TTITLE4=bigcity
TTITLE5=davisson
TTITLE6=davisson
TTITLE7=newsong
EXTD=davisson
EXTT0=
EXTT1=
EXTT2=
EXTT3=
EXTT4=
EXTT5=
EXTT6=
EXTT7=
PLAYORDER=
